<svg width="110" height="30" viewBox="0 0 110 30" fill="none" xmlns="http://www.w3.org/2000/svg">
    <rect width="110" height="30" rx="4" fill="url(#paint0_linear_3460_125856)"/>
    <path d="M28.5344 10.8V16.4H34.1344V19.2H28.5344V22H25.7344V8H34.1344V10.8H28.5344ZM34.1344 10.8H36.9344V16.4H34.1344V10.8Z" fill="white"/>
    <path d="M50.1406 8V10.8H44.5406V8H50.1406ZM50.1406 10.8H52.9406V22H50.1406V19.2H44.5406V22H41.7406V10.8H44.5406V16.4H50.1406V10.8Z" fill="white"/>
    <path d="M60.1367 8H68.5367V10.8H60.1367V8ZM57.3367 10.8H60.1367V13.6H57.3367V10.8ZM60.1367 13.6H65.7367V16.4H60.1367V13.6ZM65.7367 16.4H68.5367V19.2H65.7367V16.4ZM57.3367 19.2H65.7367V22H57.3367V19.2Z" fill="white"/>
    <path d="M80.932 8V10.8H78.132V22H75.332V10.8H72.532V8H80.932Z" fill="white"/>
    <defs>
        <linearGradient id="paint0_linear_3460_125856" x1="-19.0934" y1="-5.5" x2="55.704" y2="128.13" gradientUnits="userSpaceOnUse">
            <stop stop-color="#F1551C"/>
            <stop offset="0.253618" stop-color="#E60B74"/>
            <stop offset="0.639243" stop-color="#243AFE"/>
            <stop offset="1" stop-color="#3DE5D4"/>
        </linearGradient>
    </defs>
</svg>
