<svg width="90" height="24" viewBox="0 0 90 24" fill="none" xmlns="http://www.w3.org/2000/svg">
    <circle cx="13" cy="12" r="3" fill="#0CF574"/>
    <path d="M29.508 8.98V11.08H32.328V12.412H29.508V14.632H32.688V16H27.828V7.612H32.688V8.98H29.508ZM41.3787 16H39.6987L35.8947 10.252V16H34.2147V7.612H35.8947L39.6987 13.372V7.612H41.3787V16ZM48.7389 7.624V8.98H46.5069V16H44.8269V8.98H42.5949V7.624H48.7389ZM51.6447 8.98V11.08H54.4647V12.412H51.6447V14.632H54.8247V16H49.9647V7.612H54.8247V8.98H51.6447ZM60.6714 16L58.8234 12.736H58.0314V16H56.3514V7.624H59.4954C60.1434 7.624 60.6954 7.74 61.1514 7.972C61.6074 8.196 61.9474 8.504 62.1714 8.896C62.4034 9.28 62.5194 9.712 62.5194 10.192C62.5194 10.744 62.3594 11.244 62.0394 11.692C61.7194 12.132 61.2434 12.436 60.6114 12.604L62.6154 16H60.6714ZM58.0314 11.476H59.4354C59.8914 11.476 60.2314 11.368 60.4554 11.152C60.6794 10.928 60.7914 10.62 60.7914 10.228C60.7914 9.844 60.6794 9.548 60.4554 9.34C60.2314 9.124 59.8914 9.016 59.4354 9.016H58.0314V11.476ZM65.7189 8.98V11.08H68.5389V12.412H65.7189V14.632H68.8989V16H64.0389V7.612H68.8989V8.98H65.7189ZM73.3537 7.624C74.2337 7.624 75.0057 7.796 75.6697 8.14C76.3417 8.484 76.8577 8.976 77.2177 9.616C77.5857 10.248 77.7697 10.984 77.7697 11.824C77.7697 12.664 77.5857 13.4 77.2177 14.032C76.8577 14.656 76.3417 15.14 75.6697 15.484C75.0057 15.828 74.2337 16 73.3537 16H70.4257V7.624H73.3537ZM73.2937 14.572C74.1737 14.572 74.8537 14.332 75.3337 13.852C75.8137 13.372 76.0537 12.696 76.0537 11.824C76.0537 10.952 75.8137 10.272 75.3337 9.784C74.8537 9.288 74.1737 9.04 73.2937 9.04H72.1057V14.572H73.2937Z" fill="#0CF574"/>
    <rect x="0.5" y="0.5" width="89" height="23" rx="7.5" stroke="#0CF574"/>
</svg>
