<svg width="102" height="24" viewBox="0 0 102 24" fill="none" xmlns="http://www.w3.org/2000/svg">
<circle cx="13" cy="12" r="3" fill="#0CF574"/>
<path d="M26.508 8.98V11.08H29.328V12.412H26.508V14.632H29.688V16H24.828V7.612H29.688V8.98H26.508ZM38.3787 16H36.6987L32.8947 10.252V16H31.2147V7.612H32.8947L36.6987 13.372V7.612H38.3787V16ZM45.7389 7.624V8.98H43.5069V16H41.8269V8.98H39.5949V7.624H45.7389ZM48.6447 8.98V11.08H51.4647V12.412H48.6447V14.632H51.8247V16H46.9647V7.612H51.8247V8.98H48.6447ZM57.6714 16L55.8234 12.736H55.0314V16H53.3514V7.624H56.4954C57.1434 7.624 57.6954 7.74 58.1514 7.972C58.6074 8.196 58.9474 8.504 59.1714 8.896C59.4034 9.28 59.5194 9.712 59.5194 10.192C59.5194 10.744 59.3594 11.244 59.0394 11.692C58.7194 12.132 58.2434 12.436 57.6114 12.604L59.6154 16H57.6714ZM55.0314 11.476H56.4354C56.8914 11.476 57.2314 11.368 57.4554 11.152C57.6794 10.928 57.7914 10.62 57.7914 10.228C57.7914 9.844 57.6794 9.548 57.4554 9.34C57.2314 9.124 56.8914 9.016 56.4354 9.016H55.0314V11.476ZM62.7189 8.98V11.08H65.5389V12.412H62.7189V14.632H65.8989V16H61.0389V7.612H65.8989V8.98H62.7189ZM70.3537 7.624C71.2337 7.624 72.0057 7.796 72.6697 8.14C73.3417 8.484 73.8577 8.976 74.2177 9.616C74.5857 10.248 74.7697 10.984 74.7697 11.824C74.7697 12.664 74.5857 13.4 74.2177 14.032C73.8577 14.656 73.3417 15.14 72.6697 15.484C72.0057 15.828 71.2337 16 70.3537 16H67.4257V7.624H70.3537ZM70.2937 14.572C71.1737 14.572 71.8537 14.332 72.3337 13.852C72.8137 13.372 73.0537 12.696 73.0537 11.824C73.0537 10.952 72.8137 10.272 72.3337 9.784C71.8537 9.288 71.1737 9.04 70.2937 9.04H69.1057V14.572H70.2937Z" fill="#0CF574"/>
<path d="M94.2024 14.8961C94.6795 15.6736 93.7727 16.5435 92.8477 16.1957L89.5856 14.9691C89.3182 14.8685 89.0156 14.8685 88.7482 14.9691L85.4861 16.1957C84.5612 16.5435 83.6543 15.6736 84.1314 14.8961L88.2309 8.2161C88.6323 7.56208 89.7015 7.56208 90.1029 8.2161L94.2024 14.8961Z" fill="#0CF574"/>
<rect x="0.5" y="0.5" width="101" height="23" rx="7.5" stroke="#0CF574"/>
</svg>
