<svg width="89" height="24" viewBox="0 0 89 24" fill="none" xmlns="http://www.w3.org/2000/svg">
    <g opacity="0.3">
        <path fill-rule="evenodd" clip-rule="evenodd" d="M12 22C17.5229 22 22 17.5229 22 12C22 6.47715 17.5229 2 12 2C6.47715 2 2 6.47715 2 12C2 17.5229 6.47715 22 12 22Z" stroke="white" stroke-width="2" stroke-linecap="round" stroke-linejoin="round"/>
        <path d="M5 5L19 19" stroke="white" stroke-width="2" stroke-linecap="round" stroke-linejoin="round"/>
        <path d="M38.87 8.184V10.746H42.37V12.258H38.87V14.918H42.79V16.5H36.896V6.616H42.79V8.184H38.87ZM48.9695 16.5L47.2055 14.008L45.7215 16.5H43.5515L46.1135 12.454L43.4955 8.744H45.7075L47.4295 11.194L48.9135 8.744H51.0835L48.4795 12.678L51.1815 16.5H48.9695ZM56.8288 8.646C57.4822 8.646 58.0702 8.80467 58.5928 9.122C59.1155 9.43933 59.5215 9.90133 59.8108 10.508C60.1095 11.1053 60.2588 11.81 60.2588 12.622C60.2588 13.434 60.1095 14.1433 59.8108 14.75C59.5215 15.3473 59.1155 15.8047 58.5928 16.122C58.0702 16.4393 57.4822 16.598 56.8288 16.598C56.1755 16.598 55.6155 16.444 55.1488 16.136C54.6915 15.8187 54.3648 15.3987 54.1688 14.876V20.196H52.1948V8.744H54.1688V10.354C54.3648 9.83133 54.6915 9.416 55.1488 9.108C55.6155 8.8 56.1755 8.646 56.8288 8.646ZM56.2128 10.368C55.6155 10.368 55.1208 10.5733 54.7288 10.984C54.3462 11.3853 54.1548 11.9313 54.1548 12.622C54.1548 13.3033 54.3462 13.8493 54.7288 14.26C55.1208 14.6613 55.6155 14.862 56.2128 14.862C56.8288 14.862 57.3235 14.666 57.6968 14.274C58.0702 13.8727 58.2568 13.322 58.2568 12.622C58.2568 11.922 58.0702 11.3713 57.6968 10.97C57.3235 10.5687 56.8288 10.368 56.2128 10.368ZM61.4318 6.518C61.4318 6.20067 61.5438 5.944 61.7678 5.748C61.9918 5.54267 62.2858 5.44 62.6498 5.44C63.0138 5.44 63.3078 5.54267 63.5318 5.748C63.7558 5.944 63.8678 6.20067 63.8678 6.518C63.8678 6.826 63.7558 7.08267 63.5318 7.288C63.3078 7.484 63.0138 7.582 62.6498 7.582C62.2858 7.582 61.9918 7.484 61.7678 7.288C61.5438 7.08267 61.4318 6.826 61.4318 6.518ZM63.6298 8.744V16.5H61.6558V8.744H63.6298ZM67.3895 10.228C67.6789 9.73333 68.0615 9.346 68.5375 9.066C69.0135 8.77667 69.5455 8.632 70.1335 8.632V10.746H69.5595C68.1129 10.746 67.3895 11.418 67.3895 12.762V16.5H65.4155V8.744H67.3895V10.228ZM78.5201 12.328C78.5201 12.524 78.4967 12.748 78.4501 13H72.7661C72.7941 13.6907 72.9807 14.1993 73.3261 14.526C73.6714 14.8527 74.1007 15.016 74.6141 15.016C75.0714 15.016 75.4494 14.904 75.7481 14.68C76.0561 14.456 76.2521 14.1527 76.3361 13.77H78.4221C78.3194 14.3113 78.1001 14.7967 77.7641 15.226C77.4281 15.6553 76.9941 15.9913 76.4621 16.234C75.9394 16.4767 75.3561 16.598 74.7121 16.598C73.9561 16.598 73.2841 16.4393 72.6961 16.122C72.1081 15.7953 71.6507 15.3333 71.3241 14.736C70.9974 14.1387 70.8341 13.434 70.8341 12.622C70.8341 11.81 70.9974 11.1053 71.3241 10.508C71.6507 9.90133 72.1081 9.43933 72.6961 9.122C73.2841 8.80467 73.9561 8.646 74.7121 8.646C75.4774 8.646 76.1447 8.80467 76.7141 9.122C77.2927 9.43933 77.7361 9.878 78.0441 10.438C78.3614 10.9887 78.5201 11.6187 78.5201 12.328ZM76.5321 12.132C76.5601 11.4973 76.3921 11.0167 76.0281 10.69C75.6734 10.3633 75.2347 10.2 74.7121 10.2C74.1801 10.2 73.7321 10.3633 73.3681 10.69C73.0041 11.0167 72.8034 11.4973 72.7661 12.132H76.5321ZM82.9594 8.646C83.6127 8.646 84.1681 8.8 84.6254 9.108C85.0921 9.416 85.4281 9.83133 85.6334 10.354V6.14H87.5934V16.5H85.6334V14.876C85.4281 15.3987 85.0921 15.8187 84.6254 16.136C84.1681 16.444 83.6127 16.598 82.9594 16.598C82.3061 16.598 81.7181 16.4393 81.1954 16.122C80.6727 15.8047 80.2621 15.3473 79.9634 14.75C79.6741 14.1433 79.5294 13.434 79.5294 12.622C79.5294 11.81 79.6741 11.1053 79.9634 10.508C80.2621 9.90133 80.6727 9.43933 81.1954 9.122C81.7181 8.80467 82.3061 8.646 82.9594 8.646ZM83.5754 10.368C82.9594 10.368 82.4647 10.5687 82.0914 10.97C81.7181 11.3713 81.5314 11.922 81.5314 12.622C81.5314 13.322 81.7181 13.8727 82.0914 14.274C82.4647 14.666 82.9594 14.862 83.5754 14.862C84.1727 14.862 84.6627 14.6613 85.0454 14.26C85.4374 13.8493 85.6334 13.3033 85.6334 12.622C85.6334 11.9313 85.4374 11.3853 85.0454 10.984C84.6627 10.5733 84.1727 10.368 83.5754 10.368Z" fill="white"/>
    </g>
</svg>
