<svg width="22" height="22" viewBox="0 0 22 22" fill="none" xmlns="http://www.w3.org/2000/svg">
<path d="M7.39736 19.0116C6.869 19.0134 6.352 18.8583 5.91193 18.5659C5.47186 18.2735 5.12854 17.857 4.92551 17.3692C4.72248 16.8814 4.66888 16.3443 4.77151 15.826C4.87415 15.3077 5.12839 14.8315 5.502 14.4579C5.8756 14.0843 6.35175 13.8301 6.87004 13.7274C7.38834 13.6248 7.92544 13.6784 8.41324 13.8814C8.90103 14.0845 9.31754 14.4278 9.60996 14.8679C9.90237 15.3079 10.0575 15.8249 10.0557 16.3533C10.0557 17.0583 9.77561 17.7345 9.27708 18.233C8.77855 18.7315 8.10239 19.0116 7.39736 19.0116ZM7.39736 15.0608C7.14134 15.059 6.89055 15.1332 6.6768 15.2741C6.46305 15.4151 6.29596 15.6163 6.19673 15.8523C6.09749 16.0883 6.07058 16.3485 6.11942 16.5998C6.16825 16.8511 6.29062 17.0823 6.47101 17.2639C6.6514 17.4456 6.88168 17.5696 7.13264 17.6202C7.38361 17.6709 7.64396 17.6458 7.88067 17.5483C8.11737 17.4507 8.31978 17.2851 8.46221 17.0723C8.60464 16.8596 8.68068 16.6093 8.68069 16.3533C8.6807 16.0121 8.54578 15.6847 8.30537 15.4426C8.06496 15.2004 7.73856 15.0632 7.39736 15.0608Z" fill="white" fill-opacity="0.5" style="fill:white;fill-opacity:0.5;"/>
<path d="M14.0067 19.0116C13.4784 19.0134 12.9614 18.8583 12.5213 18.5659C12.0812 18.2735 11.7379 17.857 11.5349 17.3692C11.3319 16.8814 11.2783 16.3443 11.3809 15.826C11.4835 15.3077 11.7378 14.8315 12.1114 14.4579C12.485 14.0843 12.9611 13.8301 13.4794 13.7274C13.9977 13.6248 14.5348 13.6784 15.0226 13.8814C15.5104 14.0845 15.9269 14.4278 16.2193 14.8679C16.5117 15.3079 16.6669 15.8249 16.6651 16.3533C16.6651 16.7024 16.5963 17.0481 16.4627 17.3706C16.3291 17.6931 16.1333 17.9862 15.8865 18.233C15.6396 18.4799 15.3466 18.6757 15.024 18.8093C14.7015 18.9429 14.3558 19.0116 14.0067 19.0116ZM14.0067 15.0608C13.7507 15.059 13.4999 15.1332 13.2862 15.2741C13.0724 15.4151 12.9053 15.6163 12.8061 15.8523C12.7069 16.0883 12.68 16.3485 12.7288 16.5998C12.7776 16.8511 12.9 17.0823 13.0804 17.2639C13.2608 17.4456 13.4911 17.5696 13.742 17.6202C13.993 17.6709 14.2533 17.6458 14.49 17.5483C14.7267 17.4507 14.9292 17.2851 15.0716 17.0723C15.214 16.8596 15.2901 16.6093 15.2901 16.3533C15.2901 16.0121 15.1552 15.6847 14.9147 15.4426C14.6743 15.2004 14.3479 15.0632 14.0067 15.0608Z" fill="white" fill-opacity="0.5" style="fill:white;fill-opacity:0.5;"/>
<path d="M12.0357 17.0408H9.36816C9.18583 17.0408 9.01096 16.9683 8.88203 16.8394C8.7531 16.7105 8.68066 16.5356 8.68066 16.3533C8.68066 16.1709 8.7531 15.9961 8.88203 15.8671C9.01096 15.7382 9.18583 15.6658 9.36816 15.6658H12.0357C12.218 15.6658 12.3929 15.7382 12.5218 15.8671C12.6507 15.9961 12.7232 16.1709 12.7232 16.3533C12.7232 16.5356 12.6507 16.7105 12.5218 16.8394C12.3929 16.9683 12.218 17.0408 12.0357 17.0408Z" fill="white" fill-opacity="0.5" style="fill:white;fill-opacity:0.5;"/>
<path d="M3.52017 13.53C3.39098 13.529 3.26455 13.4926 3.15463 13.4247C3.04472 13.3568 2.95555 13.2601 2.89683 13.145C2.81803 12.9809 2.80755 12.7922 2.8677 12.6203C2.92785 12.4485 3.05371 12.3075 3.21767 12.2283C5.58437 11.225 8.13681 10.7345 10.7068 10.7892H10.8993C11.0817 10.7892 11.2565 10.8616 11.3855 10.9905C11.5144 11.1194 11.5868 11.2943 11.5868 11.4767C11.5868 11.659 11.5144 11.8339 11.3855 11.9628C11.2565 12.0917 11.0817 12.1642 10.8993 12.1642H10.716C8.35461 12.1262 6.00989 12.5658 3.82267 13.4567C3.73081 13.5092 3.62591 13.5347 3.52017 13.53Z" fill="white" fill-opacity="0.5" style="fill:white;fill-opacity:0.5;"/>
<path d="M18.2602 13.53C18.1576 13.5329 18.0561 13.5075 17.9669 13.4566C15.7287 12.5319 13.3201 12.0914 10.8994 12.1641C10.7171 12.1641 10.5422 12.0917 10.4133 11.9628C10.2843 11.8338 10.2119 11.659 10.2119 11.4766C10.2119 11.2943 10.2843 11.1194 10.4133 10.9905C10.5422 10.8616 10.7171 10.7891 10.8994 10.7891C13.5347 10.6976 16.1577 11.189 18.5811 12.2283C18.745 12.3075 18.8709 12.4484 18.931 12.6203C18.9912 12.7921 18.9807 12.9808 18.9019 13.145C18.8418 13.2628 18.7498 13.3614 18.6363 13.4295C18.5228 13.4976 18.3925 13.5324 18.2602 13.53Z" fill="white" fill-opacity="0.5" style="fill:white;fill-opacity:0.5;"/>
<path d="M6.05019 10.3308H5.96769C5.87795 10.3195 5.79134 10.2906 5.7128 10.2457C5.63426 10.2009 5.56534 10.141 5.50999 10.0694C5.45464 9.99789 5.41395 9.91615 5.39024 9.82886C5.36654 9.74158 5.36029 9.65048 5.37185 9.56078C5.50019 8.46078 6.36185 2.98828 8.90102 2.98828H11.0002C11.1825 2.98828 11.3574 3.06071 11.4863 3.18965C11.6153 3.31858 11.6877 3.49345 11.6877 3.67578C11.6877 3.85812 11.6153 4.03299 11.4863 4.16192C11.3574 4.29085 11.1825 4.36328 11.0002 4.36328H8.90102C8.03935 4.36328 7.06769 7.19578 6.73769 9.73495C6.71536 9.90097 6.63318 10.0531 6.50659 10.1628C6.37999 10.2726 6.2177 10.3323 6.05019 10.3308Z" fill="white" fill-opacity="0.5" style="fill:white;fill-opacity:0.5;"/>
<path d="M15.7297 10.3308C15.5622 10.3323 15.3999 10.2726 15.2733 10.1628C15.1467 10.0531 15.0646 9.90097 15.0422 9.73495C14.7122 7.19578 13.7497 4.36328 12.8789 4.36328H10.8164C10.6341 4.36328 10.4592 4.29085 10.3303 4.16192C10.2013 4.03299 10.1289 3.85812 10.1289 3.67578C10.1289 3.49345 10.2013 3.31858 10.3303 3.18965C10.4592 3.06071 10.6341 2.98828 10.8164 2.98828H12.8789C15.3539 2.98828 16.2064 8.01161 16.4081 9.55161C16.4196 9.64131 16.4134 9.73242 16.3897 9.8197C16.366 9.90698 16.3253 9.98873 16.2699 10.0603C16.2146 10.1318 16.1457 10.1917 16.0671 10.2365C15.9886 10.2814 15.902 10.3103 15.8122 10.3216L15.7297 10.3308Z" fill="white" fill-opacity="0.5" style="fill:white;fill-opacity:0.5;"/>
</svg>
