<svg width="18" height="18" viewBox="0 0 18 18" fill="none" xmlns="http://www.w3.org/2000/svg">
<path d="M15.6184 4.07895H13.7611C13.8546 3.79711 13.9184 3.50184 13.9184 3.18421C13.9184 1.70342 12.7751 0.5 11.3684 0.5C10.4801 0.5 9.69811 0.978684 9.24336 1.70342L8.81836 2.31184L8.39336 1.70342C7.93861 0.978684 7.15661 0.5 6.26836 0.5C4.86161 0.5 3.71836 1.70342 3.71836 3.18421C3.71836 3.50184 3.77786 3.79711 3.87561 4.07895H2.01836C1.07911 4.07895 0.326859 4.87974 0.326859 5.86842L0.318359 15.7105C0.318359 16.6992 1.07911 17.5 2.01836 17.5H15.6184C16.5576 17.5 17.3184 16.6992 17.3184 15.7105V5.86842C17.3184 4.87974 16.5576 4.07895 15.6184 4.07895ZM11.3684 2.28947C11.8359 2.28947 12.2184 2.69211 12.2184 3.18421C12.2184 3.67632 11.8359 4.07895 11.3684 4.07895C10.9009 4.07895 10.5184 3.67632 10.5184 3.18421C10.5184 2.69211 10.9009 2.28947 11.3684 2.28947ZM6.26836 2.28947C6.73586 2.28947 7.11836 2.69211 7.11836 3.18421C7.11836 3.67632 6.73586 4.07895 6.26836 4.07895C5.80086 4.07895 5.41836 3.67632 5.41836 3.18421C5.41836 2.69211 5.80086 2.28947 6.26836 2.28947ZM15.6184 15.7105H2.01836V13.9211H15.6184V15.7105ZM15.6184 11.2368H2.01836V5.86842H6.33636L4.56836 8.405L5.94961 9.44737L7.96836 6.5529L8.81836 5.33605L9.66836 6.5529L11.6871 9.44737L13.0684 8.405L11.3004 5.86842H15.6184V11.2368Z" fill="white" fill-opacity="0.5" style="fill:white;fill-opacity:0.5;"/>
</svg>
