<svg width="21" height="20" viewBox="0 0 21 20" fill="none" xmlns="http://www.w3.org/2000/svg">
<g clip-path="url(#clip0_7490_14661)">
<path d="M10.3187 9.16663C11.4238 9.16663 12.4836 9.60561 13.265 10.387C14.0464 11.1684 14.4854 12.2282 14.4854 13.3333V18.3333H12.8187V13.3333C12.8187 12.6956 12.5751 12.082 12.1376 11.6181C11.7001 11.1541 11.1019 10.8749 10.4654 10.8375L10.3187 10.8333C9.68101 10.8333 9.06742 11.0769 8.60347 11.5144C8.13951 11.9518 7.86026 12.55 7.82285 13.1866L7.81868 13.3333V18.3333H6.15202V13.3333C6.15202 12.2282 6.591 11.1684 7.37241 10.387C8.15381 9.60561 9.21362 9.16663 10.3187 9.16663ZM4.90202 11.6666C5.13452 11.6666 5.36035 11.6941 5.57702 11.745C5.43454 12.1691 5.35016 12.6106 5.32618 13.0575L5.31868 13.3333V13.405C5.2229 13.3707 5.12326 13.3483 5.02202 13.3383L4.90202 13.3333C4.59128 13.3333 4.29169 13.4491 4.06167 13.658C3.83165 13.8669 3.68768 14.154 3.65785 14.4633L3.65202 14.5833V18.3333H1.98535V14.5833C1.98535 13.8097 2.29264 13.0679 2.83962 12.5209C3.3866 11.9739 4.12847 11.6666 4.90202 11.6666ZM15.7354 11.6666C16.5089 11.6666 17.2508 11.9739 17.7977 12.5209C18.3447 13.0679 18.652 13.8097 18.652 14.5833V18.3333H16.9854V14.5833C16.9853 14.2726 16.8696 13.973 16.6607 13.7429C16.4518 13.5129 16.1647 13.369 15.8554 13.3391L15.7354 13.3333C15.5895 13.3333 15.4495 13.3583 15.3187 13.4041V13.3333C15.3187 12.7783 15.2287 12.245 15.0612 11.7466C15.277 11.6941 15.5029 11.6666 15.7354 11.6666ZM4.90202 6.66663C5.45455 6.66663 5.98446 6.88612 6.37516 7.27682C6.76586 7.66752 6.98535 8.19742 6.98535 8.74996C6.98535 9.30249 6.76586 9.8324 6.37516 10.2231C5.98446 10.6138 5.45455 10.8333 4.90202 10.8333C4.34948 10.8333 3.81958 10.6138 3.42888 10.2231C3.03818 9.8324 2.81868 9.30249 2.81868 8.74996C2.81868 8.19742 3.03818 7.66752 3.42888 7.27682C3.81958 6.88612 4.34948 6.66663 4.90202 6.66663ZM15.7354 6.66663C16.2879 6.66663 16.8178 6.88612 17.2085 7.27682C17.5992 7.66752 17.8187 8.19742 17.8187 8.74996C17.8187 9.30249 17.5992 9.8324 17.2085 10.2231C16.8178 10.6138 16.2879 10.8333 15.7354 10.8333C15.1828 10.8333 14.6529 10.6138 14.2622 10.2231C13.8715 9.8324 13.652 9.30249 13.652 8.74996C13.652 8.19742 13.8715 7.66752 14.2622 7.27682C14.6529 6.88612 15.1828 6.66663 15.7354 6.66663ZM4.90202 8.33329C4.79151 8.33329 4.68553 8.37719 4.60739 8.45533C4.52925 8.53347 4.48535 8.63945 4.48535 8.74996C4.48535 8.86047 4.52925 8.96645 4.60739 9.04459C4.68553 9.12273 4.79151 9.16663 4.90202 9.16663C5.01253 9.16663 5.11851 9.12273 5.19665 9.04459C5.27479 8.96645 5.31868 8.86047 5.31868 8.74996C5.31868 8.63945 5.27479 8.53347 5.19665 8.45533C5.11851 8.37719 5.01253 8.33329 4.90202 8.33329ZM15.7354 8.33329C15.6248 8.33329 15.5189 8.37719 15.4407 8.45533C15.3626 8.53347 15.3187 8.63945 15.3187 8.74996C15.3187 8.86047 15.3626 8.96645 15.4407 9.04459C15.5189 9.12273 15.6248 9.16663 15.7354 9.16663C15.8459 9.16663 15.9518 9.12273 16.03 9.04459C16.1081 8.96645 16.152 8.86047 16.152 8.74996C16.152 8.63945 16.1081 8.53347 16.03 8.45533C15.9518 8.37719 15.8459 8.33329 15.7354 8.33329ZM10.3187 1.66663C11.2027 1.66663 12.0506 2.01782 12.6757 2.64294C13.3008 3.26806 13.652 4.1159 13.652 4.99996C13.652 5.88401 13.3008 6.73186 12.6757 7.35698C12.0506 7.9821 11.2027 8.33329 10.3187 8.33329C9.43463 8.33329 8.58678 7.9821 7.96166 7.35698C7.33654 6.73186 6.98535 5.88401 6.98535 4.99996C6.98535 4.1159 7.33654 3.26806 7.96166 2.64294C8.58678 2.01782 9.43463 1.66663 10.3187 1.66663ZM10.3187 3.33329C9.87666 3.33329 9.45273 3.50889 9.14017 3.82145C8.82761 4.13401 8.65202 4.55793 8.65202 4.99996C8.65202 5.44199 8.82761 5.86591 9.14017 6.17847C9.45273 6.49103 9.87666 6.66663 10.3187 6.66663C10.7607 6.66663 11.1846 6.49103 11.4972 6.17847C11.8098 5.86591 11.9854 5.44199 11.9854 4.99996C11.9854 4.55793 11.8098 4.13401 11.4972 3.82145C11.1846 3.50889 10.7607 3.33329 10.3187 3.33329Z" fill="white" fill-opacity="0.5" style="fill:white;fill-opacity:0.5;"/>
</g>
<defs>
<clipPath id="clip0_7490_14661">
<rect width="20" height="20" fill="white" style="fill:white;fill-opacity:1;" transform="translate(0.318359)"/>
</clipPath>
</defs>
</svg>
