<svg width="21" height="20" viewBox="0 0 21 20" fill="none" xmlns="http://www.w3.org/2000/svg">
    <path d="M14.0681 11.6667H14.0764M2.81812 4.16667V15.8333C2.81812 16.7538 3.56431 17.5 4.48478 17.5H16.1514C17.0719 17.5 17.8181 16.7538 17.8181 15.8333V7.5C17.8181 6.57953 17.0719 5.83333 16.1514 5.83333L4.48478 5.83333C3.56431 5.83333 2.81812 5.08714 2.81812 4.16667ZM2.81812 4.16667C2.81812 3.24619 3.56431 2.5 4.48478 2.5H14.4848M14.4848 11.6667C14.4848 11.8968 14.2982 12.0833 14.0681 12.0833C13.838 12.0833 13.6514 11.8968 13.6514 11.6667C13.6514 11.4365 13.838 11.25 14.0681 11.25C14.2982 11.25 14.4848 11.4365 14.4848 11.6667Z" stroke="white" stroke-opacity="0.5" stroke-width="2" stroke-linecap="round" stroke-linejoin="round"/>
</svg>
