<svg width="28" height="28" viewBox="0 0 28 28" fill="none" xmlns="http://www.w3.org/2000/svg">
    <path d="M5.83317 10.4999C6.14259 10.4999 6.43934 10.6228 6.65813 10.8416C6.87692 11.0604 6.99984 11.3572 6.99984 11.6666C8.83284 11.6639 10.613 12.2806 12.0515 13.4166H14.5832C16.1383 13.4166 17.5348 14.0933 18.4962 15.1666H22.1665C23.2693 15.1663 24.3496 15.4786 25.2821 16.0673C26.2146 16.656 26.9612 17.497 27.4352 18.4928C24.676 22.1339 20.2088 24.4999 15.1665 24.4999C11.9115 24.4999 9.15817 23.7964 6.92984 22.5656C6.84822 22.7908 6.69912 22.9854 6.50286 23.1228C6.3066 23.2602 6.07274 23.3337 5.83317 23.3333H2.33317C2.02375 23.3333 1.72701 23.2103 1.50821 22.9915C1.28942 22.7728 1.1665 22.476 1.1665 22.1666V11.6666C1.1665 11.3572 1.28942 11.0604 1.50821 10.8416C1.72701 10.6228 2.02375 10.4999 2.33317 10.4999H5.83317ZM7.001 13.9999L6.99984 19.8589L7.05234 19.8963C9.1465 21.3663 11.8742 22.1666 15.1665 22.1666C18.6712 22.1666 21.932 20.8179 24.3073 18.5149L24.4625 18.3598L24.3225 18.2431C23.7716 17.8116 23.1038 17.5556 22.4057 17.5081L22.1665 17.4999H19.7037C19.7877 17.8756 19.8332 18.2653 19.8332 18.6666V19.8333H9.33317V17.4999L17.2548 17.4988L17.2152 17.4078C16.9916 16.9405 16.6477 16.5413 16.2187 16.251C15.7898 15.9606 15.2913 15.7897 14.7745 15.7558L14.5832 15.7499H11.1648C10.6227 15.1954 9.97515 14.755 9.26028 14.4544C8.54541 14.1539 7.77765 13.9994 7.00217 13.9999H7.001ZM4.6665 12.8333H3.49984V20.9999H4.6665V12.8333ZM20.9998 5.83325C21.9281 5.83325 22.8183 6.202 23.4747 6.85838C24.1311 7.51476 24.4998 8.40499 24.4998 9.33325C24.4998 10.2615 24.1311 11.1517 23.4747 11.8081C22.8183 12.4645 21.9281 12.8333 20.9998 12.8333C20.0716 12.8333 19.1813 12.4645 18.525 11.8081C17.8686 11.1517 17.4998 10.2615 17.4998 9.33325C17.4998 8.40499 17.8686 7.51476 18.525 6.85838C19.1813 6.202 20.0716 5.83325 20.9998 5.83325ZM20.9998 8.16659C20.6904 8.16659 20.3937 8.2895 20.1749 8.50829C19.9561 8.72709 19.8332 9.02383 19.8332 9.33325C19.8332 9.64267 19.9561 9.93942 20.1749 10.1582C20.3937 10.377 20.6904 10.4999 20.9998 10.4999C21.3093 10.4999 21.606 10.377 21.8248 10.1582C22.0436 9.93942 22.1665 9.64267 22.1665 9.33325C22.1665 9.02383 22.0436 8.72709 21.8248 8.50829C21.606 8.2895 21.3093 8.16659 20.9998 8.16659ZM12.8332 2.33325C13.7614 2.33325 14.6517 2.702 15.308 3.35838C15.9644 4.01476 16.3332 4.90499 16.3332 5.83325C16.3332 6.76151 15.9644 7.65175 15.308 8.30813C14.6517 8.9645 13.7614 9.33325 12.8332 9.33325C11.9049 9.33325 11.0147 8.9645 10.3583 8.30813C9.70192 7.65175 9.33317 6.76151 9.33317 5.83325C9.33317 4.90499 9.70192 4.01476 10.3583 3.35838C11.0147 2.702 11.9049 2.33325 12.8332 2.33325ZM12.8332 4.66659C12.5238 4.66659 12.227 4.7895 12.0082 5.00829C11.7894 5.22709 11.6665 5.52383 11.6665 5.83325C11.6665 6.14267 11.7894 6.43942 12.0082 6.65821C12.227 6.877 12.5238 6.99992 12.8332 6.99992C13.1426 6.99992 13.4393 6.877 13.6581 6.65821C13.8769 6.43942 13.9998 6.14267 13.9998 5.83325C13.9998 5.52383 13.8769 5.22709 13.6581 5.00829C13.4393 4.7895 13.1426 4.66659 12.8332 4.66659Z" fill="white" fill-opacity="0.5"/>
</svg>
