<svg width="21" height="20" viewBox="0 0 21 20" fill="none" xmlns="http://www.w3.org/2000/svg">
    <g clip-path="url(#clip0_1574_752)">
        <path d="M10.3181 1.66675C11.4125 1.66675 12.4961 1.8823 13.5071 2.30109C14.5182 2.71988 15.4368 3.3337 16.2107 4.10753C16.9845 4.88135 17.5983 5.80001 18.0171 6.81106C18.4359 7.8221 18.6514 8.90574 18.6514 10.0001M10.3181 1.66675V10.0001M10.3181 1.66675C5.71573 1.66675 1.98477 5.39771 1.98477 10.0001C1.98477 14.6025 5.71573 18.3334 10.3181 18.3334C14.9205 18.3334 18.6514 14.6025 18.6514 10.0001M10.3181 1.66675C14.9205 1.66675 18.6514 5.39771 18.6514 10.0001M18.6514 10.0001L10.3181 10.0001M18.6514 10.0001C18.6514 11.3152 18.3402 12.6116 17.7432 13.7833C17.1461 14.9551 16.2802 15.9689 15.2163 16.7419L10.3181 10.0001" stroke="#C428EC" stroke-width="2" stroke-linecap="round" stroke-linejoin="round"/>
    </g>
    <defs>
        <clipPath id="clip0_1574_752">
            <rect width="20" height="20" fill="white" transform="translate(0.318115)"/>
        </clipPath>
    </defs>
</svg>
