<svg width="24" height="23" viewBox="0 0 24 23" fill="none" xmlns="http://www.w3.org/2000/svg">
    <path d="M7.33358 6.45833C7.81682 6.45833 8.20858 6.85008 8.20858 7.33333V8.79167H9.66691C10.1502 8.79167 10.5419 9.18342 10.5419 9.66667C10.5419 10.1499 10.1502 10.5417 9.66691 10.5417H8.20858V12C8.20858 12.4832 7.81682 12.875 7.33357 12.875C6.85033 12.875 6.45858 12.4832 6.45858 12V10.5417H5.00024C4.51699 10.5417 4.12524 10.1499 4.12524 9.66667C4.12524 9.18342 4.51699 8.79167 5.00024 8.79167H6.45858V7.33333C6.45858 6.85008 6.85033 6.45833 7.33358 6.45833Z" fill="#C428EC"/>
    <path d="M17.8336 11.7083C17.8336 11.064 17.3112 10.5417 16.6669 10.5417C16.0226 10.5417 15.5002 11.064 15.5002 11.7083V12C15.5002 12.6443 16.0226 13.1667 16.6669 13.1667C17.3112 13.1667 17.8336 12.6443 17.8336 12V11.7083Z" fill="#C428EC"/>
    <path d="M16.6669 6.16667C17.3112 6.16667 17.8336 6.689 17.8336 7.33333V7.625C17.8336 8.26933 17.3112 8.79167 16.6669 8.79167C16.0226 8.79167 15.5002 8.26933 15.5002 7.625V7.33333C15.5002 6.689 16.0226 6.16667 16.6669 6.16667Z" fill="#C428EC"/>
    <path d="M20.1669 9.66667C20.1669 10.311 19.6446 10.8333 19.0002 10.8333H18.7086C18.0642 10.8333 17.5419 10.311 17.5419 9.66667C17.5419 9.02233 18.0642 8.5 18.7086 8.5H19.0002C19.6446 8.5 20.1669 9.02233 20.1669 9.66667Z" fill="#C428EC"/>
    <path d="M14.6252 10.8333C15.2696 10.8333 15.7919 10.311 15.7919 9.66667C15.7919 9.02233 15.2696 8.5 14.6252 8.5H14.3336C13.6892 8.5 13.1669 9.02233 13.1669 9.66667C13.1669 10.311 13.6892 10.8333 14.3336 10.8333H14.6252Z" fill="#C428EC"/>
    <path fill-rule="evenodd" clip-rule="evenodd" d="M12.8752 1.5C12.8752 1.01675 12.4835 0.625 12.0002 0.625C11.517 0.625 11.1252 1.01675 11.1252 1.5V3.23469C9.44629 3.25763 7.76801 3.34662 6.09431 3.50166L5.70745 3.5375C2.91712 3.79596 0.768495 6.11308 0.721008 8.91494L0.7069 9.74731C0.651712 13.0036 0.91419 16.2575 1.49061 19.4628C1.7764 21.0519 3.15929 22.2083 4.77396 22.2083H5.03185C6.4731 22.2083 7.77897 21.359 8.36331 20.0415L9.60067 17.2517C10.5236 15.1707 13.4769 15.1707 14.3998 17.2517L15.6372 20.0415C16.2215 21.359 17.5274 22.2083 18.9686 22.2083H19.2265C20.8412 22.2083 22.2241 21.0519 22.5099 19.4628C23.0863 16.2575 23.3488 13.0036 23.2936 9.7473L23.2795 8.91494C23.232 6.11307 21.0834 3.79596 18.2931 3.5375L17.9062 3.50166C16.2325 3.34662 14.5542 3.25763 12.8752 3.23469V1.5ZM6.25572 5.2442C10.0772 4.89021 13.9233 4.89021 17.7448 5.2442L18.1316 5.28004C20.0331 5.45617 21.4974 7.03521 21.5297 8.94459L21.5438 9.77696C21.5971 12.9195 21.3438 16.0597 20.7875 19.153C20.6516 19.9086 19.9942 20.4583 19.2265 20.4583H18.9686C18.2195 20.4583 17.5406 20.0168 17.2369 19.332L15.9995 16.5421C14.4613 13.0739 9.53923 13.0739 8.00096 16.5421L6.76359 19.332C6.45984 20.0168 5.78104 20.4583 5.03185 20.4583H4.77396C4.00631 20.4583 3.34885 19.9086 3.21298 19.153C2.6567 16.0597 2.40339 12.9195 2.45665 9.77696L2.47076 8.9446C2.50312 7.03521 3.96734 5.45617 5.86886 5.28004L6.25572 5.2442Z" fill="#C428EC"/>
</svg>
