<svg width="28" height="28" viewBox="0 0 28 28" fill="none" xmlns="http://www.w3.org/2000/svg">
    <path d="M14.0002 12.8333C15.5473 12.8333 17.031 13.4478 18.125 14.5418C19.2189 15.6358 19.8335 17.1195 19.8335 18.6666V25.6666H17.5002V18.6666C17.5002 17.7738 17.1591 16.9148 16.5467 16.2653C15.9342 15.6157 15.0967 15.2248 14.2055 15.1724L14.0002 15.1666C13.1074 15.1665 12.2484 15.5076 11.5989 16.1201C10.9493 16.7325 10.5584 17.57 10.506 18.4613L10.5002 18.6666V25.6666H8.16683V18.6666C8.16683 17.1195 8.78141 15.6358 9.87537 14.5418C10.9693 13.4478 12.4531 12.8333 14.0002 12.8333ZM6.41683 16.3333C6.74233 16.3333 7.0585 16.3718 7.36183 16.4429C7.16236 17.0368 7.04423 17.6549 7.01066 18.2804L7.00016 18.6666V18.7669C6.86606 18.7189 6.72657 18.6876 6.58483 18.6736L6.41683 18.6666C5.9818 18.6666 5.56237 18.8287 5.24034 19.1211C4.91831 19.4136 4.71676 19.8156 4.675 20.2486L4.66683 20.4166V25.6666H2.3335V20.4166C2.3335 19.3336 2.7637 18.295 3.52948 17.5292C4.29525 16.7635 5.33386 16.3333 6.41683 16.3333ZM21.5835 16.3333C22.6665 16.3333 23.7051 16.7635 24.4708 17.5292C25.2366 18.295 25.6668 19.3336 25.6668 20.4166V25.6666H23.3335V20.4166C23.3335 19.9816 23.1714 19.5621 22.8789 19.2401C22.5865 18.9181 22.1845 18.7165 21.7515 18.6748L21.5835 18.6666C21.3793 18.6666 21.1833 18.7016 21.0002 18.7658V18.6666C21.0002 17.8896 20.8742 17.1429 20.6397 16.4453C20.9418 16.3718 21.258 16.3333 21.5835 16.3333ZM6.41683 9.33325C7.19038 9.33325 7.93224 9.64054 8.47922 10.1875C9.02621 10.7345 9.3335 11.4764 9.3335 12.2499C9.3335 13.0235 9.02621 13.7653 8.47922 14.3123C7.93224 14.8593 7.19038 15.1666 6.41683 15.1666C5.64328 15.1666 4.90142 14.8593 4.35443 14.3123C3.80745 13.7653 3.50016 13.0235 3.50016 12.2499C3.50016 11.4764 3.80745 10.7345 4.35443 10.1875C4.90142 9.64054 5.64328 9.33325 6.41683 9.33325ZM21.5835 9.33325C22.357 9.33325 23.0989 9.64054 23.6459 10.1875C24.1929 10.7345 24.5002 11.4764 24.5002 12.2499C24.5002 13.0235 24.1929 13.7653 23.6459 14.3123C23.0989 14.8593 22.357 15.1666 21.5835 15.1666C20.8099 15.1666 20.0681 14.8593 19.5211 14.3123C18.9741 13.7653 18.6668 13.0235 18.6668 12.2499C18.6668 11.4764 18.9741 10.7345 19.5211 10.1875C20.0681 9.64054 20.8099 9.33325 21.5835 9.33325ZM6.41683 11.6666C6.26212 11.6666 6.11375 11.728 6.00435 11.8374C5.89495 11.9468 5.8335 12.0952 5.8335 12.2499C5.8335 12.4046 5.89495 12.553 6.00435 12.6624C6.11375 12.7718 6.26212 12.8333 6.41683 12.8333C6.57154 12.8333 6.71991 12.7718 6.82931 12.6624C6.9387 12.553 7.00016 12.4046 7.00016 12.2499C7.00016 12.0952 6.9387 11.9468 6.82931 11.8374C6.71991 11.728 6.57154 11.6666 6.41683 11.6666ZM21.5835 11.6666C21.4288 11.6666 21.2804 11.728 21.171 11.8374C21.0616 11.9468 21.0002 12.0952 21.0002 12.2499C21.0002 12.4046 21.0616 12.553 21.171 12.6624C21.2804 12.7718 21.4288 12.8333 21.5835 12.8333C21.7382 12.8333 21.8866 12.7718 21.996 12.6624C22.1054 12.553 22.1668 12.4046 22.1668 12.2499C22.1668 12.0952 22.1054 11.9468 21.996 11.8374C21.8866 11.728 21.7382 11.6666 21.5835 11.6666ZM14.0002 2.33325C15.2378 2.33325 16.4248 2.82492 17.3 3.70009C18.1752 4.57526 18.6668 5.76224 18.6668 6.99992C18.6668 8.2376 18.1752 9.42458 17.3 10.2998C16.4248 11.1749 15.2378 11.6666 14.0002 11.6666C12.7625 11.6666 11.5755 11.1749 10.7003 10.2998C9.82516 9.42458 9.3335 8.2376 9.3335 6.99992C9.3335 5.76224 9.82516 4.57526 10.7003 3.70009C11.5755 2.82492 12.7625 2.33325 14.0002 2.33325ZM14.0002 4.66659C13.3813 4.66659 12.7878 4.91242 12.3502 5.35C11.9127 5.78759 11.6668 6.38108 11.6668 6.99992C11.6668 7.61876 11.9127 8.21225 12.3502 8.64983C12.7878 9.08742 13.3813 9.33325 14.0002 9.33325C14.619 9.33325 15.2125 9.08742 15.6501 8.64983C16.0877 8.21225 16.3335 7.61876 16.3335 6.99992C16.3335 6.38108 16.0877 5.78759 15.6501 5.35C15.2125 4.91242 14.619 4.66659 14.0002 4.66659Z" fill="white" fill-opacity="0.5"/>
</svg>
