<svg width="21" height="20" viewBox="0 0 21 20" fill="none" xmlns="http://www.w3.org/2000/svg">
    <path d="M8.14737 16.1427L8.63441 17.238C8.77919 17.5641 9.01547 17.8412 9.31459 18.0356C9.61372 18.23 9.96283 18.3335 10.3196 18.3334C10.6764 18.3335 11.0255 18.23 11.3246 18.0356C11.6237 17.8412 11.86 17.5641 12.0048 17.238L12.4918 16.1427C12.6652 15.754 12.9568 15.43 13.3251 15.2168C13.6958 15.0029 14.1246 14.9119 14.5501 14.9566L15.7418 15.0834C16.0965 15.1209 16.4545 15.0547 16.7724 14.8929C17.0902 14.731 17.3543 14.4803 17.5326 14.1714C17.711 13.8626 17.7961 13.5086 17.7773 13.1525C17.7586 12.7963 17.6369 12.4532 17.427 12.1649L16.7214 11.1955C16.4702 10.8477 16.336 10.4291 16.3381 10.0001C16.338 9.57224 16.4735 9.15537 16.7251 8.80934L17.4307 7.8399C17.6406 7.55154 17.7623 7.20847 17.781 6.85231C17.7998 6.49615 17.7147 6.1422 17.5363 5.83341C17.358 5.52444 17.0939 5.27382 16.7761 5.11194C16.4582 4.95005 16.1002 4.88386 15.7455 4.92138L14.5538 5.04823C14.1283 5.09292 13.6995 5.00185 13.3288 4.78804C12.9598 4.57363 12.6681 4.24788 12.4955 3.85749L12.0048 2.76212C11.86 2.43606 11.6237 2.15901 11.3246 1.96458C11.0255 1.77015 10.6764 1.66669 10.3196 1.66675C9.96283 1.66669 9.61372 1.77015 9.31459 1.96458C9.01547 2.15901 8.77919 2.43606 8.63441 2.76212L8.14737 3.85749C7.97481 4.24788 7.6831 4.57363 7.31404 4.78804C6.94338 5.00185 6.51459 5.09292 6.08904 5.04823L4.89367 4.92138C4.53894 4.88386 4.18095 4.95005 3.86309 5.11194C3.54524 5.27382 3.28118 5.52444 3.10292 5.83341C2.92444 6.1422 2.83941 6.49615 2.85815 6.85231C2.87688 7.20847 2.99858 7.55154 3.20848 7.8399L3.91404 8.80934C4.16565 9.15537 4.30115 9.57224 4.30107 10.0001C4.30115 10.4279 4.16565 10.8448 3.91404 11.1908L3.20848 12.1603C2.99858 12.4486 2.87688 12.7917 2.85815 13.1479C2.83941 13.504 2.92444 13.858 3.10292 14.1667C3.28135 14.4756 3.54545 14.726 3.86326 14.8879C4.18106 15.0498 4.53897 15.1161 4.89367 15.0788L6.08533 14.9519C6.51089 14.9072 6.93968 14.9983 7.31033 15.2121C7.68077 15.4259 7.97384 15.7517 8.14737 16.1427Z" stroke="white" stroke-opacity="0.5" stroke-width="2" stroke-linecap="round" stroke-linejoin="round"/>
    <path d="M10.3181 12.5001C11.6988 12.5001 12.8181 11.3808 12.8181 10.0001C12.8181 8.61937 11.6988 7.50008 10.3181 7.50008C8.93739 7.50008 7.8181 8.61937 7.8181 10.0001C7.8181 11.3808 8.93739 12.5001 10.3181 12.5001Z" stroke="white" stroke-opacity="0.5" stroke-width="2" stroke-linecap="round" stroke-linejoin="round"/>
</svg>
