<svg width="21" height="20" viewBox="0 0 21 20" fill="none" xmlns="http://www.w3.org/2000/svg">
    <path d="M7.81812 5.83333H4.15145C3.68474 5.83333 3.45138 5.83333 3.27312 5.92416C3.11632 6.00406 2.98884 6.13154 2.90894 6.28834C2.81812 6.4666 2.81812 6.69996 2.81812 7.16667V16.1667C2.81812 16.6334 2.81812 16.8667 2.90894 17.045C2.98884 17.2018 3.11632 17.3293 3.27312 17.4092C3.45138 17.5 3.68474 17.5 4.15145 17.5H7.81811M7.81811 17.5H12.8181M7.81811 17.5L7.81812 3.83333C7.81812 3.36662 7.81812 3.13327 7.90894 2.95501C7.98884 2.79821 8.11632 2.67072 8.27312 2.59083C8.45138 2.5 8.68474 2.5 9.15145 2.5L11.4848 2.5C11.9515 2.5 12.1848 2.5 12.3631 2.59083C12.5199 2.67072 12.6474 2.79821 12.7273 2.95501C12.8181 3.13327 12.8181 3.36662 12.8181 3.83333V17.5M12.8181 9.16667H16.4848C16.9515 9.16667 17.1848 9.16667 17.3631 9.25749C17.5199 9.33739 17.6474 9.46487 17.7273 9.62167C17.8181 9.79993 17.8181 10.0333 17.8181 10.5V16.1667C17.8181 16.6334 17.8181 16.8667 17.7273 17.045C17.6474 17.2018 17.5199 17.3293 17.3631 17.4092C17.1848 17.5 16.9515 17.5 16.4848 17.5H12.8181" stroke="white" stroke-opacity="0.5" stroke-width="2" stroke-linecap="round" stroke-linejoin="round"/>
</svg>
