<svg width="137" height="26" viewBox="0 0 137 26" fill="none" xmlns="http://www.w3.org/2000/svg">
<g clip-path="url(#clip0_7478_14564)">
<path d="M5.46101 9.36056C4.50692 7.80562 6.32071 6.06595 8.17059 6.76172L12.745 8.48221C13.2797 8.68334 13.8851 8.68339 14.4199 8.48234L18.9945 6.76259C20.8445 6.06712 22.658 7.80708 21.7037 9.36188L15.4534 19.5446C14.6506 20.8526 12.5122 20.8524 11.7096 19.5443L5.46101 9.36056Z" fill="#BCBCBC" style="fill:#BCBCBC;fill:color(display-p3 0.7375 0.7375 0.7375);fill-opacity:1;"/>
</g>
<g filter="url(#filter0_d_7478_14564)">
<path d="M69.9511 8.38005V17.6201H76.1111V20.7001H66.8711V5.30005H76.1111V8.38005H69.9511ZM76.1111 8.38005H79.1911V17.6201H76.1111V8.38005Z" fill="#4D4D4D" style="fill:#4D4D4D;fill:color(display-p3 0.3000 0.3000 0.3000);fill-opacity:1;"/>
<path d="M86.6668 5.30005H92.8268V8.38005H86.6668V5.30005ZM83.5868 8.38005H86.6668V17.6201H83.5868V8.38005ZM92.8268 8.38005H95.9068V17.6201H92.8268V8.38005ZM86.6668 17.6201H92.8268V20.7001H86.6668V17.6201Z" fill="#4D4D4D" style="fill:#4D4D4D;fill:color(display-p3 0.3000 0.3000 0.3000);fill-opacity:1;"/>
<path d="M100.742 5.30005H103.822V17.6201H100.742V5.30005ZM106.902 5.30005H109.982V17.6201H106.902V5.30005ZM113.062 5.30005H116.142V17.6201H113.062V5.30005ZM103.822 17.6201H106.902V20.7001H103.822V17.6201ZM109.982 17.6201H113.062V20.7001H109.982V17.6201Z" fill="#4D4D4D" style="fill:#4D4D4D;fill:color(display-p3 0.3000 0.3000 0.3000);fill-opacity:1;"/>
<path d="M124.512 8.38005H127.592V11.46H124.512V20.7001H121.432V5.30005H124.512V8.38005ZM130.672 5.30005H133.752V20.7001H130.672V14.5401H127.592V11.46H130.672V5.30005Z" fill="#4D4D4D" style="fill:#4D4D4D;fill:color(display-p3 0.3000 0.3000 0.3000);fill-opacity:1;"/>
<path d="M76.1111 21.7001H77.1111V20.7001V18.6201H79.1911H80.1911V17.6201V8.38005V7.38005H79.1911H77.1111V5.30005V4.30005H76.1111H66.8711H65.8711V5.30005V20.7001V21.7001H66.8711H76.1111ZM75.1111 16.6201H70.9511V9.38005H75.1111V16.6201ZM86.6668 4.30005H85.6668V5.30005V7.38005H83.5868H82.5868V8.38005V17.6201V18.6201H83.5868H85.6668V20.7001V21.7001H86.6668H92.8268H93.8268V20.7001V18.6201H95.9068H96.9068V17.6201V8.38005V7.38005H95.9068H93.8268V5.30005V4.30005H92.8268H86.6668ZM91.8268 9.38005V16.6201H87.6668V9.38005H91.8268ZM100.742 4.30005H99.7425V5.30005V17.6201V18.6201H100.742H102.822V20.7001V21.7001H103.822H106.902H107.902V20.7001V18.6201H108.982V20.7001V21.7001H109.982H113.062H114.062V20.7001V18.6201H116.142H117.142V17.6201V5.30005V4.30005H116.142H113.062H112.062V5.30005V16.6201H110.982V5.30005V4.30005H109.982H106.902H105.902V5.30005V16.6201H104.822V5.30005V4.30005H103.822H100.742ZM128.592 8.38005V7.38005H127.592H125.512V5.30005V4.30005H124.512H121.432H120.432V5.30005V20.7001V21.7001H121.432H124.512H125.512V20.7001V12.46H126.592V14.5401V15.5401H127.592H129.672V20.7001V21.7001H130.672H133.752H134.752V20.7001V5.30005V4.30005H133.752H130.672H129.672V5.30005V10.46H128.592V8.38005Z" stroke="#BCBCBC" style="stroke:#BCBCBC;stroke:color(display-p3 0.7375 0.7375 0.7375);stroke-opacity:1;" stroke-width="2"/>
</g>
<defs>
<filter id="filter0_d_7478_14564" x="63.8711" y="3.30005" width="72.8809" height="22.4" filterUnits="userSpaceOnUse" color-interpolation-filters="sRGB">
<feFlood flood-opacity="0" result="BackgroundImageFix"/>
<feColorMatrix in="SourceAlpha" type="matrix" values="0 0 0 0 0 0 0 0 0 0 0 0 0 0 0 0 0 0 127 0" result="hardAlpha"/>
<feOffset dy="2"/>
<feGaussianBlur stdDeviation="0.5"/>
<feComposite in2="hardAlpha" operator="out"/>
<feColorMatrix type="matrix" values="0 0 0 0 0 0 0 0 0 0 0 0 0 0 0 0 0 0 0.25 0"/>
<feBlend mode="normal" in2="BackgroundImageFix" result="effect1_dropShadow_7478_14564"/>
<feBlend mode="normal" in="SourceGraphic" in2="effect1_dropShadow_7478_14564" result="shape"/>
</filter>
<clipPath id="clip0_7478_14564">
<rect width="26" height="26" fill="white" style="fill:white;fill-opacity:1;" transform="translate(0.871094)"/>
</clipPath>
</defs>
</svg>
