<svg width="111" height="26" viewBox="0 0 111 26" fill="none" xmlns="http://www.w3.org/2000/svg">
    <g clip-path="url(#clip0_865_2267)">
        <path d="M5.14949 9.36056C4.1954 7.80562 6.00919 6.06595 7.85907 6.76172L12.4334 8.48221C12.9682 8.68334 13.5735 8.68339 14.1083 8.48234L18.683 6.76259C20.533 6.06712 22.3465 7.80708 21.3922 9.36188L15.1419 19.5446C14.3391 20.8526 12.2007 20.8524 11.3981 19.5443L5.14949 9.36056Z" fill="#8A031D"/>
    </g>
    <g filter="url(#filter0_d_865_2267)">
        <path d="M43.6396 8.38005V17.6201H49.7996V20.7001H40.5596V5.30005H49.7996V8.38005H43.6396ZM49.7996 8.38005H52.8796V17.6201H49.7996V8.38005Z" fill="#49000E"/>
        <path d="M60.3553 5.30005H66.5153V8.38005H60.3553V5.30005ZM57.2753 8.38005H60.3553V17.6201H57.2753V8.38005ZM66.5153 8.38005H69.5953V17.6201H66.5153V8.38005ZM60.3553 17.6201H66.5153V20.7001H60.3553V17.6201Z" fill="#49000E"/>
        <path d="M74.431 5.30005H77.511V17.6201H74.431V5.30005ZM80.591 5.30005H83.671V17.6201H80.591V5.30005ZM86.751 5.30005H89.831V17.6201H86.751V5.30005ZM77.511 17.6201H80.591V20.7001H77.511V17.6201ZM83.671 17.6201H86.751V20.7001H83.671V17.6201Z" fill="#49000E"/>
        <path d="M98.2004 8.38005H101.28V11.46H98.2004V20.7001H95.1204V5.30005H98.2004V8.38005ZM104.36 5.30005H107.44V20.7001H104.36V14.5401H101.28V11.46H104.36V5.30005Z" fill="#49000E"/>
        <path d="M49.7996 21.7001H50.7996V20.7001V18.6201H52.8796H53.8796V17.6201V8.38005V7.38005H52.8796H50.7996V5.30005V4.30005H49.7996H40.5596H39.5596V5.30005V20.7001V21.7001H40.5596H49.7996ZM48.7996 16.6201H44.6396V9.38005H48.7996V16.6201ZM60.3553 4.30005H59.3553V5.30005V7.38005H57.2753H56.2753V8.38005V17.6201V18.6201H57.2753H59.3553V20.7001V21.7001H60.3553H66.5153H67.5153V20.7001V18.6201H69.5953H70.5953V17.6201V8.38005V7.38005H69.5953H67.5153V5.30005V4.30005H66.5153H60.3553ZM65.5153 9.38005V16.6201H61.3553V9.38005H65.5153ZM74.431 4.30005H73.431V5.30005V17.6201V18.6201H74.431H76.511V20.7001V21.7001H77.511H80.591H81.591V20.7001V18.6201H82.671V20.7001V21.7001H83.671H86.751H87.751V20.7001V18.6201H89.831H90.831V17.6201V5.30005V4.30005H89.831H86.751H85.751V5.30005V16.6201H84.671V5.30005V4.30005H83.671H80.591H79.591V5.30005V16.6201H78.511V5.30005V4.30005H77.511H74.431ZM102.28 8.38005V7.38005H101.28H99.2004V5.30005V4.30005H98.2004H95.1204H94.1204V5.30005V20.7001V21.7001H95.1204H98.2004H99.2004V20.7001V12.46H100.28V14.5401V15.5401H101.28H103.36V20.7001V21.7001H104.36H107.44H108.44V20.7001V5.30005V4.30005H107.44H104.36H103.36V5.30005V10.46H102.28V8.38005Z" stroke="#FE7970" stroke-width="2"/>
    </g>
    <defs>
        <filter id="filter0_d_865_2267" x="37.5596" y="3.30005" width="72.8809" height="22.3999" filterUnits="userSpaceOnUse" color-interpolation-filters="sRGB">
            <feFlood flood-opacity="0" result="BackgroundImageFix"/>
            <feColorMatrix in="SourceAlpha" type="matrix" values="0 0 0 0 0 0 0 0 0 0 0 0 0 0 0 0 0 0 127 0" result="hardAlpha"/>
            <feOffset dy="2"/>
            <feGaussianBlur stdDeviation="0.5"/>
            <feComposite in2="hardAlpha" operator="out"/>
            <feColorMatrix type="matrix" values="0 0 0 0 0 0 0 0 0 0 0 0 0 0 0 0 0 0 0.25 0"/>
            <feBlend mode="normal" in2="BackgroundImageFix" result="effect1_dropShadow_865_2267"/>
            <feBlend mode="normal" in="SourceGraphic" in2="effect1_dropShadow_865_2267" result="shape"/>
        </filter>
        <clipPath id="clip0_865_2267">
            <rect width="26" height="26" fill="white" transform="translate(0.55957)"/>
        </clipPath>
    </defs>
</svg>
