<svg width="119" height="27" viewBox="0 0 119 27" fill="none" xmlns="http://www.w3.org/2000/svg">
<g clip-path="url(#clip0_7443_13535)">
<path d="M4.91462 9.86056C3.96053 8.30562 5.77432 6.56595 7.6242 7.26172L12.1986 8.98221C12.7333 9.18334 13.3387 9.18339 13.8735 8.98234L18.4482 7.26259C20.2981 6.56712 22.1116 8.30708 21.1573 9.86188L14.9071 20.0446C14.1042 21.3526 11.9659 21.3524 11.1632 20.0443L4.91462 9.86056Z" fill="#8A031D"/>
</g>
<g filter="url(#filter0_d_7443_13535)">
<path d="M51.4047 8.88005V18.1201H57.5647V21.2001H48.3247V5.80005H57.5647V8.88005H51.4047ZM57.5647 8.88005H60.6447V18.1201H57.5647V8.88005Z" fill="#49000E"/>
<path d="M68.1204 5.80005H74.2804V8.88005H68.1204V5.80005ZM65.0404 8.88005H68.1204V18.1201H65.0404V8.88005ZM74.2804 8.88005H77.3604V18.1201H74.2804V8.88005ZM68.1204 18.1201H74.2804V21.2001H68.1204V18.1201Z" fill="#49000E"/>
<path d="M82.1961 5.80005H85.2761V18.1201H82.1961V5.80005ZM88.3561 5.80005H91.4361V18.1201H88.3561V5.80005ZM94.5161 5.80005H97.5961V18.1201H94.5161V5.80005ZM85.2761 18.1201H88.3561V21.2001H85.2761V18.1201ZM91.4361 18.1201H94.5161V21.2001H91.4361V18.1201Z" fill="#49000E"/>
<path d="M105.966 8.88005H109.046V11.96H105.966V21.2001H102.886V5.80005H105.966V8.88005ZM112.126 5.80005H115.206V21.2001H112.126V15.0401H109.046V11.96H112.126V5.80005Z" fill="#49000E"/>
<path d="M57.5647 22.2001H58.5647V21.2001V19.1201H60.6447H61.6447V18.1201V8.88005V7.88005H60.6447H58.5647V5.80005V4.80005H57.5647H48.3247H47.3247V5.80005V21.2001V22.2001H48.3247H57.5647ZM56.5647 17.1201H52.4047V9.88005H56.5647V17.1201ZM68.1204 4.80005H67.1204V5.80005V7.88005H65.0404H64.0404V8.88005V18.1201V19.1201H65.0404H67.1204V21.2001V22.2001H68.1204H74.2804H75.2804V21.2001V19.1201H77.3604H78.3604V18.1201V8.88005V7.88005H77.3604H75.2804V5.80005V4.80005H74.2804H68.1204ZM73.2804 9.88005V17.1201H69.1204V9.88005H73.2804ZM82.1961 4.80005H81.1961V5.80005V18.1201V19.1201H82.1961H84.2761V21.2001V22.2001H85.2761H88.3561H89.3561V21.2001V19.1201H90.4361V21.2001V22.2001H91.4361H94.5161H95.5161V21.2001V19.1201H97.5961H98.5961V18.1201V5.80005V4.80005H97.5961H94.5161H93.5161V5.80005V17.1201H92.4361V5.80005V4.80005H91.4361H88.3561H87.3561V5.80005V17.1201H86.2761V5.80005V4.80005H85.2761H82.1961ZM110.046 8.88005V7.88005H109.046H106.966V5.80005V4.80005H105.966H102.886H101.886V5.80005V21.2001V22.2001H102.886H105.966H106.966V21.2001V12.96H108.046V15.0401V16.0401H109.046H111.126V21.2001V22.2001H112.126H115.206H116.206V21.2001V5.80005V4.80005H115.206H112.126H111.126V5.80005V10.96H110.046V8.88005Z" stroke="#FE7970" stroke-width="2"/>
</g>
<defs>
<filter id="filter0_d_7443_13535" x="45.3247" y="3.80005" width="72.8809" height="22.3999" filterUnits="userSpaceOnUse" color-interpolation-filters="sRGB">
<feFlood flood-opacity="0" result="BackgroundImageFix"/>
<feColorMatrix in="SourceAlpha" type="matrix" values="0 0 0 0 0 0 0 0 0 0 0 0 0 0 0 0 0 0 127 0" result="hardAlpha"/>
<feOffset dy="2"/>
<feGaussianBlur stdDeviation="0.5"/>
<feComposite in2="hardAlpha" operator="out"/>
<feColorMatrix type="matrix" values="0 0 0 0 0 0 0 0 0 0 0 0 0 0 0 0 0 0 0.25 0"/>
<feBlend mode="normal" in2="BackgroundImageFix" result="effect1_dropShadow_7443_13535"/>
<feBlend mode="normal" in="SourceGraphic" in2="effect1_dropShadow_7443_13535" result="shape"/>
</filter>
<clipPath id="clip0_7443_13535">
<rect width="26" height="26" fill="white" transform="translate(0.324707 0.5)"/>
</clipPath>
</defs>
</svg>
