<svg width="33" height="30" viewBox="0 0 33 30" fill="none" xmlns="http://www.w3.org/2000/svg">
    <g clip-path="url(#clip0_1581_17752)">
        <circle cx="17.6" cy="15" r="15" fill="#AC0019"/>
        <circle cx="15.6" cy="15" r="15" fill="#FF1F40"/>
        <circle cx="15.6" cy="15" r="9.5" stroke="#810606"/>
        <circle cx="15.6" cy="15" r="9.5" stroke="white" stroke-dasharray="4 4"/>
        <path opacity="0.6" fill-rule="evenodd" clip-rule="evenodd" d="M30.3143 17.9286C30.5004 16.9882 30.5986 16.0163 30.6 15.0216V14.9784C30.5986 13.9837 30.5004 13.0118 30.3143 12.0714L27.3988 12.8003C27.5309 13.5134 27.6 14.2486 27.6 15C27.6 15.7514 27.5309 16.4866 27.3988 17.1997L30.3143 17.9286ZM28.0743 23.3331L25.4984 21.7876C25.0876 22.3853 24.6165 22.954 24.0852 23.4853C23.5539 24.0166 22.9852 24.4876 22.3876 24.8985L23.9331 27.4743C24.7419 26.9329 25.4952 26.3149 26.1825 25.6307L26.2307 25.5825C26.9149 24.8952 27.5328 24.1419 28.0743 23.3331ZM18.5286 29.7143L17.7997 26.7988C17.0866 26.9309 16.3514 27 15.6 27C14.8486 27 14.1134 26.9309 13.4003 26.7988L12.6714 29.7143C13.6118 29.9004 14.5837 29.9986 15.5784 30H15.6216C16.6163 29.9986 17.5882 29.9004 18.5286 29.7143ZM7.2669 27.4742L8.81239 24.8984C8.21473 24.4876 7.64601 24.0165 7.11472 23.4852C6.58342 22.9539 6.11236 22.3852 5.70153 21.7876L3.12573 23.333C3.66811 24.1434 4.28736 24.8979 4.97303 25.5862C4.9866 25.5998 5.0002 25.6134 5.01382 25.627C5.7021 26.3126 6.45661 26.9319 7.2669 27.4742ZM0.600006 15C0.600006 16.0022 0.698288 16.9814 0.88574 17.9286L3.80117 17.1997C3.66906 16.4866 3.6 15.7514 3.6 15C3.6 14.2486 3.66906 13.5134 3.80117 12.8003L0.885743 12.0714C0.698289 13.0186 0.600006 13.9978 0.600006 15ZM3.12576 6.6669L5.70157 8.21239C6.1124 7.61473 6.58346 7.04601 7.11475 6.51471C7.64605 5.98342 8.21477 5.51236 8.81243 5.10153L7.26695 2.52573C6.45498 3.06922 5.69903 3.68988 5.0096 4.37723L4.97723 4.4096C4.2899 5.09902 3.66925 5.85495 3.12576 6.6669ZM12.6714 0.285737L13.4003 3.20116C14.1134 3.06905 14.8486 3 15.6 3C16.3514 3 17.0866 3.06905 17.7997 3.20116L18.5286 0.285734C17.5814 0.0982822 16.6022 0 15.6 0C14.5978 0 13.6186 0.0982832 12.6714 0.285737ZM23.9331 2.52575L22.3876 5.10156C22.9853 5.51239 23.554 5.98345 24.0853 6.51475C24.6166 7.04604 25.0876 7.61476 25.4985 8.21242L28.0743 6.66694C27.5319 5.85665 26.9127 5.10215 26.227 4.41387C26.2134 4.40021 26.1998 4.38657 26.1861 4.37296C25.4979 3.68732 24.7434 3.06811 23.9331 2.52575Z" fill="white"/>
        <path d="M10.7993 13.15C10.3021 12.3853 11.186 11.492 12.1197 11.8156L15.4126 12.9568C15.6825 13.0503 15.9851 13.0424 16.2498 12.9349L19.4787 11.6237C20.3943 11.2519 21.3235 12.0979 20.8668 12.8875L16.9428 19.6721C16.5587 20.3364 15.4898 20.3643 15.0716 19.7209L10.7993 13.15Z" fill="#810606"/>
    </g>
    <defs>
        <clipPath id="clip0_1581_17752">
            <rect width="32" height="30" fill="white" transform="translate(0.600006)"/>
        </clipPath>
    </defs>
</svg>
