<svg width="24" height="25" viewBox="0 0 24 25" fill="none" xmlns="http://www.w3.org/2000/svg">
    <path d="M14 2.37085V6.50139C14 7.06144 14 7.34147 14.109 7.55538C14.2049 7.74354 14.3578 7.89652 14.546 7.9924C14.7599 8.10139 15.0399 8.10139 15.6 8.10139H19.7305M20 10.0895V17.3013C20 18.9815 20 19.8216 19.673 20.4633C19.3854 21.0278 18.9265 21.4867 18.362 21.7743C17.7202 22.1013 16.8802 22.1013 15.2 22.1013H8.8C7.11984 22.1013 6.27976 22.1013 5.63803 21.7743C5.07354 21.4867 4.6146 21.0278 4.32698 20.4633C4 19.8216 4 18.9815 4 17.3013V6.90132C4 5.22116 4 4.38108 4.32698 3.73935C4.6146 3.17486 5.07354 2.71592 5.63803 2.4283C6.27976 2.10132 7.11984 2.10132 8.8 2.10132H12.0118C12.7455 2.10132 13.1124 2.10132 13.4577 2.18421C13.7638 2.2577 14.0564 2.37891 14.3249 2.5434C14.6276 2.72892 14.887 2.98835 15.4059 3.50721L18.5941 6.69543C19.113 7.21429 19.3724 7.47371 19.5579 7.77646C19.7224 8.04488 19.8436 8.33751 19.9171 8.64362C20 8.98889 20 9.35577 20 10.0895Z" stroke="url(#paint0_linear_2201_4587)" stroke-width="2" stroke-linecap="round" stroke-linejoin="round"/>
    <path d="M14 17.1013H8M16 13.1013H8" stroke="#FFCEA0" stroke-width="2" stroke-linecap="round" stroke-linejoin="round"/>
    <defs>
        <linearGradient id="paint0_linear_2201_4587" x1="12" y1="2.10132" x2="12" y2="22.1013" gradientUnits="userSpaceOnUse">
            <stop stop-color="#C72EEC"/>
            <stop offset="1" stop-color="#FFA0D4"/>
        </linearGradient>
    </defs>
</svg>
