<svg width="61" height="30" viewBox="0 0 61 30" fill="none" xmlns="http://www.w3.org/2000/svg">
    <rect x="0.200012" width="60" height="30" rx="4" fill="white" fill-opacity="0.1"/>
    <path d="M9.60078 19.2H15.2008V22H6.80078V8H9.60078V19.2Z" fill="white"/>
    <path d="M19.5938 8H22.3938V22H19.5938V8Z" fill="white"/>
    <path d="M26.7922 8H29.5922V13.6H26.7922V8ZM37.9922 8H40.7922V13.6H37.9922V8ZM29.5922 13.6H32.3922V19.2H29.5922V13.6ZM35.1922 13.6H37.9922V19.2H35.1922V13.6ZM32.3922 19.2H35.1922V22H32.3922V19.2Z" fill="white"/>
    <path d="M53.5992 10.8H47.9992V13.6H53.5992V16.4H47.9992V19.2H53.5992V22H45.1992V8H53.5992V10.8Z" fill="white"/>
</svg>
