<svg width="60" height="30" viewBox="0 0 60 30" fill="none" xmlns="http://www.w3.org/2000/svg">
    <rect x="0.199951" width="60" height="30" rx="4" fill="url(#paint0_linear_1604_23452)"/>
    <path d="M9.60078 19.2H15.2008V22H6.80078V8H9.60078V19.2Z" fill="white"/>
    <path d="M19.5938 8H22.3938V22H19.5938V8Z" fill="white"/>
    <path d="M26.7922 8H29.5922V13.6H26.7922V8ZM37.9922 8H40.7922V13.6H37.9922V8ZM29.5922 13.6H32.3922V19.2H29.5922V13.6ZM35.1922 13.6H37.9922V19.2H35.1922V13.6ZM32.3922 19.2H35.1922V22H32.3922V19.2Z" fill="white"/>
    <path d="M53.5992 10.8H47.9992V13.6H53.5992V16.4H47.9992V19.2H53.5992V22H45.1992V8H53.5992V10.8Z" fill="white"/>
    <defs>
        <linearGradient id="paint0_linear_1604_23452" x1="-10.2146" y1="-5.5" x2="77.5044" y2="79.981" gradientUnits="userSpaceOnUse">
            <stop stop-color="#F1551C"/>
            <stop offset="0.253618" stop-color="#E60B74"/>
            <stop offset="0.639243" stop-color="#243AFE"/>
            <stop offset="1" stop-color="#3DE5D4"/>
        </linearGradient>
    </defs>
</svg>
