<svg width="22" height="19" viewBox="0 0 22 19" fill="none" xmlns="http://www.w3.org/2000/svg">
    <path d="M10.601 13.5223C9.09871 13.5223 7.65792 12.9255 6.59562 11.8632C5.53332 10.8009 4.93652 9.3601 4.93652 7.85778V1.28853C4.92155 1.07572 4.92155 0.862118 4.93652 0.649307C4.94879 0.553094 4.97989 0.46024 5.02805 0.376046C5.0762 0.291852 5.14047 0.217967 5.21717 0.158609C5.29388 0.0992519 5.38153 0.0555847 5.47511 0.0301005C5.5687 0.00461631 5.66639 -0.00218575 5.7626 0.010083C5.85881 0.0223517 5.95167 0.053451 6.03586 0.101605C6.12005 0.149759 6.19394 0.214024 6.2533 0.290732C6.31265 0.36744 6.35632 0.455088 6.3818 0.548672C6.40729 0.642257 6.41409 0.739944 6.40182 0.836157C6.39139 0.986768 6.39139 1.13792 6.40182 1.28853V7.85778C6.40182 8.96887 6.8432 10.0345 7.62886 10.8201C8.41452 11.6058 9.4801 12.0472 10.5912 12.0472C11.7023 12.0472 12.7679 11.6058 13.5535 10.8201C14.3392 10.0345 14.7806 8.96887 14.7806 7.85778V1.28853C14.791 1.13792 14.791 0.986768 14.7806 0.836157C14.7851 0.660218 14.8523 0.491686 14.9702 0.360997C15.0881 0.230308 15.2488 0.146077 15.4233 0.123517C15.5979 0.100957 15.7748 0.141554 15.922 0.237977C16.0692 0.3344 16.1771 0.480293 16.2262 0.649307C16.2412 0.862118 16.2412 1.07572 16.2262 1.28853V7.85778C16.2262 9.35331 15.6348 10.7882 14.581 11.8493C13.5272 12.9105 12.0965 13.5119 10.601 13.5223Z" fill="url(#paint0_linear_2089_43393)"/>
    <path d="M16.0593 7.53329C15.9241 7.53212 15.7916 7.49477 15.6757 7.42512L15.1447 7.11042C14.9858 7.00897 14.8718 6.85053 14.826 6.66764C14.7803 6.48475 14.8064 6.29129 14.8988 6.127C14.997 5.96454 15.1548 5.84687 15.3385 5.7991C15.5222 5.75133 15.7174 5.77725 15.8822 5.87131L16.2264 6.07783C18.8522 5.88114 19.4521 2.89154 19.6488 1.47542H1.55381C1.69148 2.90138 2.32087 5.88114 4.94661 6.01882L5.2908 5.8123C5.45569 5.71824 5.65081 5.69233 5.83453 5.7401C6.01825 5.78786 6.17604 5.90553 6.27423 6.06799C6.36669 6.23228 6.39273 6.42574 6.34701 6.60863C6.30129 6.79153 6.18727 6.94997 6.02837 7.05142L5.49732 7.36611C5.38143 7.43576 5.249 7.47312 5.11379 7.47429C1.07193 7.47429 0 3.04889 0 0.70835C0.0101906 0.513575 0.0961158 0.330501 0.239433 0.198208C0.382749 0.0659159 0.572102 -0.00511233 0.767068 0.000286726H20.4355C20.6303 0.00283375 20.8164 0.0813591 20.9542 0.219131C21.092 0.356903 21.1705 0.54303 21.1731 0.737852C21.1731 3.07839 20.1011 7.53329 16.0593 7.53329Z" fill="url(#paint1_linear_2089_43393)"/>
    <path d="M10.6013 18.9999C10.4065 18.9974 10.2204 18.9188 10.0826 18.7811C9.94484 18.6433 9.86632 18.4572 9.86377 18.2623V12.7847C9.86377 12.5891 9.94148 12.4015 10.0798 12.2631C10.2181 12.1248 10.4057 12.0471 10.6013 12.0471C10.7969 12.0471 10.9846 12.1248 11.1229 12.2631C11.2612 12.4015 11.3389 12.5891 11.3389 12.7847V18.2623C11.3364 18.4572 11.2578 18.6433 11.1201 18.7811C10.9823 18.9188 10.7962 18.9974 10.6013 18.9999Z" fill="url(#paint2_linear_2089_43393)"/>
    <path d="M16.0791 19H6.24489C6.04928 19 5.86167 18.9223 5.72335 18.784C5.58503 18.6457 5.50732 18.4581 5.50732 18.2625C5.50732 18.0669 5.58503 17.8793 5.72335 17.7409C5.86167 17.6026 6.04928 17.5249 6.24489 17.5249H16.0791C16.2747 17.5249 16.4623 17.6026 16.6006 17.7409C16.739 17.8793 16.8167 18.0669 16.8167 18.2625C16.8167 18.4581 16.739 18.6457 16.6006 18.784C16.4623 18.9223 16.2747 19 16.0791 19Z" fill="url(#paint3_linear_2089_43393)"/>
    <defs>
        <linearGradient id="paint0_linear_2089_43393" x1="10.5814" y1="0.00415039" x2="10.5814" y2="13.5223" gradientUnits="userSpaceOnUse">
            <stop stop-color="#C72EEC"/>
            <stop offset="1" stop-color="#FFA0D4"/>
        </linearGradient>
        <linearGradient id="paint1_linear_2089_43393" x1="10.5865" y1="0" x2="10.5865" y2="7.53329" gradientUnits="userSpaceOnUse">
            <stop stop-color="#C72EEC"/>
            <stop offset="1" stop-color="#FFA0D4"/>
        </linearGradient>
        <linearGradient id="paint2_linear_2089_43393" x1="10.6013" y1="12.0471" x2="10.6013" y2="18.9999" gradientUnits="userSpaceOnUse">
            <stop stop-color="#C72EEC"/>
            <stop offset="1" stop-color="#FFA0D4"/>
        </linearGradient>
        <linearGradient id="paint3_linear_2089_43393" x1="11.162" y1="17.5249" x2="11.162" y2="19" gradientUnits="userSpaceOnUse">
            <stop stop-color="#C72EEC"/>
            <stop offset="1" stop-color="#FFA0D4"/>
        </linearGradient>
    </defs>
</svg>
