<svg width="33" height="30" viewBox="0 0 33 30" fill="none" xmlns="http://www.w3.org/2000/svg">
    <g clip-path="url(#clip0_1581_17753)">
        <circle cx="17.4" cy="15" r="15" fill="#00B450"/>
        <circle cx="15.4" cy="15" r="15" fill="#0CF574"/>
        <circle cx="15.4" cy="15" r="9.5" stroke="#00B450"/>
        <circle cx="15.4" cy="15" r="9.5" stroke="white" stroke-dasharray="4 4"/>
        <path opacity="0.6" fill-rule="evenodd" clip-rule="evenodd" d="M30.1143 17.9286C30.3004 16.9882 30.3986 16.0163 30.4 15.0216V14.9784C30.3986 13.9837 30.3004 13.0118 30.1143 12.0714L27.1988 12.8003C27.3309 13.5134 27.4 14.2486 27.4 15C27.4 15.7514 27.3309 16.4866 27.1988 17.1997L30.1143 17.9286ZM27.8742 23.3331L25.2984 21.7876C24.8876 22.3853 24.4165 22.954 23.8852 23.4853C23.3539 24.0166 22.7852 24.4876 22.1876 24.8985L23.733 27.4743C24.5419 26.9329 25.2952 26.3149 25.9825 25.6307L26.0307 25.5825C26.7149 24.8952 27.3328 24.1419 27.8742 23.3331ZM18.3286 29.7143L17.5997 26.7988C16.8866 26.9309 16.1514 27 15.4 27C14.6486 27 13.9134 26.9309 13.2003 26.7988L12.4714 29.7143C13.4118 29.9004 14.3837 29.9986 15.3784 30H15.4216C16.4163 29.9986 17.3882 29.9004 18.3286 29.7143ZM7.06689 27.4742L8.61238 24.8984C8.01472 24.4876 7.446 24.0165 6.91471 23.4852C6.38341 22.9539 5.91235 22.3852 5.50152 21.7876L2.92572 23.333C3.4681 24.1434 4.08734 24.8979 4.77302 25.5862C4.78659 25.5998 4.80019 25.6134 4.81381 25.627C5.50209 26.3126 6.25659 26.9319 7.06689 27.4742ZM0.399994 15C0.399994 16.0022 0.498276 16.9814 0.685728 17.9286L3.60116 17.1997C3.46905 16.4866 3.39999 15.7514 3.39999 15C3.39999 14.2486 3.46905 13.5134 3.60116 12.8003L0.685731 12.0714C0.498277 13.0186 0.399994 13.9978 0.399994 15ZM2.92575 6.6669L5.50156 8.21239C5.91238 7.61473 6.38345 7.04601 6.91474 6.51471C7.44604 5.98342 8.01476 5.51236 8.61242 5.10153L7.06694 2.52573C6.25497 3.06922 5.49902 3.68988 4.80959 4.37723L4.77722 4.4096C4.08989 5.09902 3.46923 5.85495 2.92575 6.6669ZM12.4714 0.285737L13.2003 3.20116C13.9134 3.06905 14.6486 3 15.4 3C16.1514 3 16.8866 3.06905 17.5997 3.20116L18.3286 0.285734C17.3814 0.0982822 16.4022 0 15.4 0C14.3978 0 13.4186 0.0982832 12.4714 0.285737ZM23.7331 2.52575L22.1876 5.10156C22.7853 5.51239 23.354 5.98345 23.8853 6.51475C24.4166 7.04604 24.8876 7.61476 25.2985 8.21242L27.8743 6.66694C27.3319 5.85665 26.7127 5.10215 26.027 4.41387C26.0134 4.40021 25.9998 4.38657 25.9861 4.37296C25.2978 3.68732 24.5434 3.06811 23.7331 2.52575Z" fill="white"/>
        <path d="M20.6902 17.2051C21.1673 17.9826 20.2605 18.8525 19.3355 18.5047L16.0735 17.2781C15.8061 17.1775 15.5034 17.1775 15.236 17.2781L11.974 18.5047C11.049 18.8525 10.1422 17.9826 10.6193 17.2051L14.7188 10.5251C15.1201 9.87107 16.1893 9.87107 16.5907 10.5251L20.6902 17.2051Z" fill="#007434"/>
    </g>
    <defs>
        <clipPath id="clip0_1581_17753">
            <rect width="32" height="30" fill="white" transform="translate(0.399994)"/>
        </clipPath>
    </defs>
</svg>
