<svg width="20" height="20" viewBox="0 0 20 20" fill="none" xmlns="http://www.w3.org/2000/svg">
    <path d="M16.667 7.91659V5.99992C16.667 5.0665 16.667 4.59979 16.4853 4.24327C16.3255 3.92967 16.0706 3.6747 15.757 3.51491C15.4005 3.33325 14.9337 3.33325 14.0003 3.33325H4.33366C3.40024 3.33325 2.93353 3.33325 2.57701 3.51491C2.2634 3.6747 2.00844 3.92966 1.84865 4.24327C1.66699 4.59979 1.66699 5.0665 1.66699 5.99992V13.9999C1.66699 14.9333 1.66699 15.4 1.84865 15.7566C2.00844 16.0702 2.2634 16.3251 2.57701 16.4849C2.93353 16.6666 3.40024 16.6666 4.33366 16.6666L14.0003 16.6666C14.9337 16.6666 15.4005 16.6666 15.757 16.4849C16.0706 16.3251 16.3255 16.0702 16.4853 15.7566C16.667 15.4 16.667 14.9333 16.667 13.9999V12.0833M12.5003 9.99992C12.5003 9.61271 12.5003 9.4191 12.5324 9.2581C12.6639 8.59695 13.1807 8.08012 13.8418 7.94861C14.0028 7.91659 14.1964 7.91659 14.5837 7.91659H16.2503C16.6375 7.91659 16.8311 7.91659 16.9921 7.94861C17.6533 8.08012 18.1701 8.59695 18.3016 9.2581C18.3337 9.4191 18.3337 9.61271 18.3337 9.99992C18.3337 10.3871 18.3337 10.5807 18.3016 10.7417C18.1701 11.4029 17.6533 11.9197 16.9921 12.0512C16.8311 12.0833 16.6375 12.0833 16.2503 12.0833H14.5837C14.1964 12.0833 14.0028 12.0833 13.8418 12.0512C13.1807 11.9197 12.6639 11.4029 12.5324 10.7417C12.5003 10.5807 12.5003 10.3871 12.5003 9.99992Z" stroke="white" stroke-width="2" stroke-linecap="round" stroke-linejoin="round"/>
</svg>
