<svg width="32" height="31" viewBox="0 0 32 31" fill="none" xmlns="http://www.w3.org/2000/svg">
    <g clip-path="url(#clip0_873_11747)">
        <circle cx="17" cy="15.3335" r="15" fill="#7F009F"/>
        <circle cx="15" cy="15.3335" r="15" fill="#C428EC"/>
        <circle cx="15" cy="15.3335" r="9.5" stroke="#7F009F"/>
        <circle cx="15" cy="15.3335" r="9.5" stroke="white" stroke-dasharray="4 4"/>
        <path opacity="0.6" fill-rule="evenodd" clip-rule="evenodd" d="M29.7143 18.2621C29.9004 17.3217 29.9986 16.3498 30 15.3551V15.3119C29.9986 14.3172 29.9004 13.3453 29.7143 12.4049L26.7988 13.1338C26.9309 13.8469 27 14.5821 27 15.3335C27 16.0849 26.9309 16.8201 26.7988 17.5332L29.7143 18.2621ZM27.4742 23.6666L24.8984 22.1211C24.4876 22.7188 24.0165 23.2875 23.4852 23.8188C22.9539 24.3501 22.3852 24.8211 21.7876 25.232L23.3331 27.8078C24.1419 27.2664 24.8952 26.6484 25.5825 25.9642L25.6307 25.916C26.3149 25.2287 26.9328 24.4754 27.4742 23.6666ZM17.9286 30.0478L17.1997 27.1323C16.4866 27.2644 15.7514 27.3335 15 27.3335C14.2486 27.3335 13.5134 27.2644 12.8003 27.1323L12.0714 30.0478C13.0118 30.2339 13.9837 30.3321 14.9784 30.3335H15.0216C16.0163 30.3321 16.9882 30.2339 17.9286 30.0478ZM6.6669 27.8077L8.21239 25.2319C7.61473 24.8211 7.04601 24.35 6.51471 23.8187C5.98342 23.2874 5.51236 22.7187 5.10153 22.1211L2.52572 23.6665C3.06811 24.4769 3.68735 25.2314 4.37303 25.9197C4.3866 25.9333 4.40019 25.9469 4.41381 25.9605C5.1021 26.6461 5.8566 27.2654 6.6669 27.8077ZM0 15.3335C0 16.3357 0.0982822 17.3149 0.285734 18.2621L3.20116 17.5332C3.06905 16.8201 3 16.0849 3 15.3335C3 14.5821 3.06905 13.8469 3.20116 13.1338L0.285737 12.4049C0.0982832 13.3521 0 14.3313 0 15.3335ZM2.52576 7.0004L5.10156 8.54588C5.51239 7.94822 5.98345 7.3795 6.51475 6.84821C7.04604 6.31691 7.61476 5.84585 8.21242 5.43502L6.66694 2.85923C5.85497 3.40272 5.09903 4.02338 4.40959 4.71072L4.37722 4.74309C3.68989 5.43251 3.06924 6.18845 2.52576 7.0004ZM12.0714 0.619233L12.8003 3.53466C13.5134 3.40255 14.2486 3.33349 15 3.33349C15.7514 3.33349 16.4866 3.40255 17.1997 3.53466L17.9286 0.61923C16.9814 0.431778 16.0022 0.333496 15 0.333496C13.9978 0.333496 13.0186 0.431779 12.0714 0.619233ZM23.3331 2.85925L21.7876 5.43506C22.3853 5.84589 22.954 6.31695 23.4853 6.84824C24.0166 7.37954 24.4876 7.94826 24.8985 8.54592L27.4743 7.00043C26.9319 6.19014 26.3127 5.43565 25.627 4.74737C25.6134 4.73371 25.5998 4.72007 25.5861 4.70646C24.8979 4.02082 24.1434 3.40161 23.3331 2.85925Z" fill="white"/>
    </g>
    <defs>
        <clipPath id="clip0_873_11747">
            <rect width="32" height="30" fill="white" transform="translate(0 0.333496)"/>
        </clipPath>
    </defs>
</svg>
